<svg preserveAspectRatio="none" width="100%" height="100%" overflow="visible" style="display: block;" viewBox="0 0 295 31" fill="none" xmlns="http://www.w3.org/2000/svg">
<title>Longevitix</title>
<g id="Logo" clip-path="url(#clip0_89_449)">
<path id="Vector" d="M5.3155 25.5574H13.3409C15.4254 25.5574 16.4885 26.5714 16.4885 28.5788V29.717C16.4885 30.2136 16.2592 30.462 15.7797 30.462H0.604508C0.208451 30.462 0 30.255 0 29.8618V1.17957C0 0.744993 0.187606 0.538051 0.604508 0.538051H1.08395C2.45972 0.538051 3.50198 0.910547 4.23156 1.63485C4.96114 2.37984 5.3155 3.58011 5.3155 5.27704V25.5574Z" fill="var(--fill-0, #001125)"/>
<path id="Vector_2" d="M39.1675 30.9997C34.6858 31.1032 31.1838 29.7995 28.6616 27.0678C26.1393 24.3569 24.8261 20.6112 24.7218 15.8929C24.6385 12.7474 25.1387 9.97436 26.2018 7.61521C27.2649 5.25607 28.8492 3.41428 30.9337 2.08985C33.0182 0.765414 35.5196 0.0825036 38.4379 -0.000273437C41.3562 -0.0830505 43.941 0.517083 46.0464 1.73804C48.1517 2.95901 49.7985 4.71802 50.9658 7.03578C52.1332 9.33284 52.7585 12.0645 52.8419 15.2307C52.9461 19.9697 51.8205 23.7567 49.4441 26.5919C47.0678 29.427 43.6492 30.8963 39.1675 30.9997ZM39.0424 25.9917C40.585 25.9503 42.0233 25.5985 43.2948 24.957C44.5664 24.3155 45.6086 23.198 46.3591 21.6459C47.1095 20.0939 47.4638 18.0037 47.4013 15.3549C47.3388 12.706 46.901 10.6159 46.0672 9.08451C45.2334 7.55313 44.1495 6.49772 42.8154 5.8769C41.4813 5.25607 40.0638 4.96635 38.5421 5.00774C37.0204 5.04913 35.5613 5.40093 34.248 6.08384C32.9348 6.76675 31.9134 7.88424 31.163 9.43631C30.4125 10.9884 30.0582 13.0992 30.1207 15.7481C30.1833 18.3969 30.621 20.487 31.4548 21.9977C32.2886 23.5084 33.3726 24.5638 34.7066 25.1433C36.0407 25.7227 37.479 26.0124 39.0424 25.9917Z" fill="var(--fill-0, #001125)"/>
<path id="Vector_3" d="M82.2135 20.777V1.17956C82.2135 0.744979 82.4011 0.538037 82.818 0.538037H83.2557C84.6732 0.538037 85.7363 0.889839 86.445 1.61414C87.1746 2.33844 87.529 3.5387 87.529 5.21494V29.8618C87.529 30.255 87.3205 30.4619 86.9245 30.4619H83.0681C82.5678 30.4619 82.1718 30.2343 81.88 29.7583L70.0608 10.6575V29.8618C70.0608 30.255 69.8523 30.4619 69.4563 30.4619H65.3289C64.9329 30.4619 64.7244 30.255 64.7244 29.8618V1.17956C64.7244 0.744979 64.912 0.538037 65.3289 0.538037H66.9549C68.0805 0.538037 68.9351 0.744979 69.5605 1.15886C70.165 1.57275 70.7695 2.25566 71.3532 3.1869L82.1926 20.777H82.2135Z" fill="var(--fill-0, #001125)"/>
<path id="Vector_4" d="M120.151 24.1502V18.8732H115.982C113.898 18.8732 112.835 17.8591 112.835 15.8518V14.8792C112.835 14.3411 113.064 14.0721 113.543 14.0721H124.55C124.946 14.0721 125.154 14.2997 125.154 14.7757V25.3298C125.154 25.8264 125.071 26.2403 124.946 26.5507C124.8 26.8612 124.508 27.1923 124.07 27.5441C122.548 28.7236 121.006 29.5928 119.401 30.1515C117.796 30.7103 116.024 30.9793 114.044 30.9793C111.376 30.9793 108.937 30.4413 106.727 29.3652C104.517 28.2891 102.766 26.6128 101.474 24.3158C100.182 22.0187 99.5146 19.0594 99.5146 15.4379C99.5146 12.251 100.119 9.49867 101.307 7.18091C102.495 4.86315 104.205 3.08344 106.435 1.86248C108.645 0.620828 111.271 0 114.294 0C115.816 0 117.15 0.124166 118.338 0.351802C119.505 0.579439 120.61 0.889853 121.61 1.30374C122.694 1.69693 123.403 2.19359 123.716 2.81442C124.049 3.41455 124.07 4.22163 123.778 5.23565L123.507 6.4773C123.403 6.95327 123.195 7.18091 122.903 7.18091C122.799 7.18091 122.674 7.13952 122.528 7.03605C122.382 6.95327 122.215 6.89119 122.048 6.8498C119.797 5.62884 117.358 5.02871 114.669 5.02871C111.709 5.02871 109.374 5.87717 107.644 7.59479C105.914 9.31242 105.08 12.0234 105.08 15.7483C105.08 19.018 105.852 21.5427 107.415 23.3638C108.978 25.1849 111.146 26.0748 113.981 26.0748C115.128 26.0748 116.212 25.9299 117.17 25.6402C118.129 25.3505 119.13 24.8745 120.151 24.1916V24.1502Z" fill="var(--fill-0, #001125)"/>
<path id="Vector_5" d="M142.435 25.5574H152.128C154.233 25.5574 155.276 26.5714 155.276 28.5787V29.7169C155.276 30.2136 155.046 30.4619 154.567 30.4619H137.703C137.307 30.4619 137.099 30.255 137.099 29.8618V1.17955C137.099 0.744968 137.286 0.538025 137.703 0.538025H151.69C153.796 0.538025 154.838 1.55204 154.838 3.55939V4.67688C154.838 5.17354 154.588 5.44256 154.087 5.44256H142.435V13.0787H150.627C152.712 13.0787 153.775 14.0721 153.775 16.038V17.2176C153.775 17.7143 153.545 17.9626 153.066 17.9626H142.435V25.5574Z" fill="var(--fill-0, #001125)"/>
<path id="Vector_6" d="M223.897 5.48395H215.872C215.476 5.48395 215.268 5.27701 215.268 4.84243V1.17955C215.268 0.744968 215.476 0.538025 215.872 0.538025H234.904C237.03 0.538025 238.093 1.55204 238.093 3.60078V4.73896C238.093 4.92521 238.03 5.09076 237.905 5.25632C237.78 5.42187 237.593 5.50465 237.343 5.50465H229.275V29.8825C229.275 30.2757 229.088 30.4826 228.734 30.4826H224.565C224.127 30.4826 223.918 30.2757 223.918 29.8825V5.48395H223.897Z" fill="var(--fill-0, #001125)"/>
<path id="Vector_7" d="M248.87 30.4619C248.474 30.4619 248.266 30.255 248.266 29.8618V1.17956C248.266 0.744979 248.453 0.538037 248.87 0.538037H249.35C250.767 0.538037 251.809 0.889839 252.518 1.61414C253.227 2.33844 253.581 3.5387 253.581 5.21494V29.8618C253.581 30.255 253.373 30.4619 252.977 30.4619H248.849H248.87Z" fill="var(--fill-0, #001125)"/>
<g id="Group">
<path id="Vector_8" d="M293.228 1.32443C294.666 2.48331 295.291 4.24232 294.895 6.02203C293.728 11.237 285.765 10.5334 285.724 4.86315C285.703 1.0968 290.268 -1.0761 293.228 1.32443Z" fill="var(--fill-0, #D36567)"/>
<path id="Vector_9" d="M263.336 23.6535C261.502 27.8545 266.38 32.0761 270.173 29.717C273.384 27.7303 272.112 23.9846 274.718 21.7083C275.635 20.9012 276.698 20.715 277.761 20.5908C279.387 20.3631 281.472 20.7563 282.493 21.6462C285.057 23.8812 284.494 28.8064 288.58 30.0895C292.978 31.476 296.709 26.2196 293.958 22.7223C291.644 19.763 287.35 21.0254 284.807 18.6662C283.639 17.5901 283.452 16.1829 283.16 14.8585C283.16 14.8585 283.16 14.8585 283.16 14.8378C283.16 14.7757 283.139 14.7136 283.118 14.6515C282.868 13.6582 282.305 12.7063 281.367 11.9199C279.512 10.3885 276.406 11.1956 274.697 8.93992C272.925 6.58077 274.197 3.37316 271.278 1.15888C268.151 -1.24166 262.773 1.86248 263.837 6.16689C265.087 11.1749 270.674 9.002 272.946 12.7477C273.967 14.4239 273.384 17.7764 271.945 19.1008C269.444 21.4186 265.025 19.7216 263.315 23.6328L263.336 23.6535Z" fill="var(--fill-0, #D36567)"/>
</g>
<path id="Vector_10" d="M176.954 24.2125L184.27 1.28327C184.458 0.786604 184.791 0.517578 185.292 0.517578H189.19C189.586 0.517578 189.732 0.724521 189.627 1.1591L179.935 29.8413C179.789 30.2345 179.559 30.4415 179.226 30.4415H174.285C173.848 30.4415 173.577 30.2345 173.473 29.8413L163.78 1.22118C163.738 1.03493 163.759 0.890075 163.8 0.745215C163.863 0.600355 163.967 0.538272 164.155 0.538272H165.947C167.177 0.538272 168.136 0.807298 168.845 1.32465C169.554 1.84201 170.158 2.91811 170.658 4.53226L176.954 24.2332V24.2125Z" fill="var(--fill-0, #001125)"/>
<path id="Vector_11" d="M200.321 30.4619C199.925 30.4619 199.717 30.255 199.717 29.8618V1.17955C199.717 0.744968 199.904 0.538025 200.321 0.538025H200.801C202.218 0.538025 203.26 0.889827 203.969 1.61413C204.678 2.33843 205.032 3.53869 205.032 5.21493V29.8618C205.032 30.255 204.824 30.4619 204.428 30.4619H200.3H200.321Z" fill="var(--fill-0, #001125)"/>
</g>
<defs>
<clipPath id="clip0_89_449">
<rect width="295" height="31" fill="white"/>
</clipPath>
</defs>
</svg>
